<svg width="147" height="22" viewBox="0 0 147 22" fill="none" xmlns="http://www.w3.org/2000/svg">
<path d="M10.242 1.592H13.57L15.676 7.702L17.808 1.592H21.11L17.938 9.99L20.278 15.866L25.504 1.54H29.404L22.02 20H18.926L15.676 12.252L12.452 20H9.358L2 1.54H5.848L11.1 15.866L13.388 9.99L10.242 1.592ZM36.227 20.26C34.7536 20.26 33.4796 19.9393 32.405 19.298C31.3476 18.6567 30.5243 17.8073 29.935 16.75C29.3456 15.6753 29.051 14.514 29.051 13.266C29.051 11.9833 29.337 10.8047 29.909 9.73C30.4983 8.638 31.3303 7.77133 32.405 7.13C33.4796 6.47133 34.7623 6.142 36.253 6.142C37.7436 6.142 39.0176 6.47133 40.075 7.13C41.1323 7.77133 41.9383 8.62933 42.493 9.704C43.065 10.7613 43.351 11.9053 43.351 13.136C43.351 13.5867 43.325 13.9767 43.273 14.306H32.743C32.8296 15.3633 33.2196 16.1953 33.913 16.802C34.6236 17.4087 35.4383 17.712 36.357 17.712C37.0503 17.712 37.7003 17.5473 38.307 17.218C38.931 16.8713 39.3556 16.4207 39.581 15.866L42.571 16.698C42.0683 17.738 41.2623 18.596 40.153 19.272C39.0436 19.9307 37.735 20.26 36.227 20.26ZM32.665 12.096H39.789C39.685 11.0733 39.295 10.25 38.619 9.626C37.9603 8.98467 37.1543 8.664 36.201 8.664C35.265 8.664 34.459 8.98467 33.783 9.626C33.1243 10.25 32.7516 11.0733 32.665 12.096ZM54.0014 20.26C52.9614 20.26 52.0341 20.026 51.2194 19.558C50.4048 19.09 49.7634 18.4487 49.2954 17.634V20H46.2534V1.02H49.7374V8.768C50.2228 7.95333 50.8554 7.312 51.6354 6.844C52.4328 6.376 53.3601 6.142 54.4174 6.142C55.5961 6.142 56.6274 6.47133 57.5114 7.13C58.4128 7.77133 59.1148 8.62933 59.6174 9.704C60.1201 10.7787 60.3714 11.9573 60.3714 13.24C60.3714 14.5573 60.0941 15.7447 59.5394 16.802C58.9848 17.8593 58.2221 18.7 57.2514 19.324C56.2981 19.948 55.2148 20.26 54.0014 20.26ZM53.0394 17.296C53.7848 17.296 54.4348 17.114 54.9894 16.75C55.5614 16.386 56.0034 15.9007 56.3154 15.294C56.6448 14.67 56.8094 13.994 56.8094 13.266C56.8094 12.5207 56.6534 11.836 56.3414 11.212C56.0468 10.5707 55.6308 10.0593 55.0934 9.678C54.5561 9.29667 53.9408 9.106 53.2474 9.106C52.4848 9.106 51.7828 9.366 51.1414 9.886C50.5174 10.3887 50.0494 11.0127 49.7374 11.758V15.008C49.9628 15.684 50.4048 16.2387 51.0634 16.672C51.7221 17.088 52.3808 17.296 53.0394 17.296Z" fill="#2196F3"/>
<path d="M74.8479 6.376C74.6919 6.20267 74.3626 5.97733 73.8599 5.7C73.3573 5.40533 72.7506 5.14533 72.0399 4.92C71.3466 4.67733 70.6273 4.556 69.8819 4.556C67.9233 4.556 66.9439 5.24933 66.9439 6.636C66.9439 7.13867 67.0999 7.53733 67.4119 7.832C67.7239 8.12667 68.1919 8.378 68.8159 8.586C69.4399 8.794 70.2199 9.01933 71.1559 9.262C72.3693 9.574 73.4179 9.938 74.3019 10.354C75.2033 10.77 75.8879 11.3247 76.3559 12.018C76.8413 12.694 77.0839 13.5953 77.0839 14.722C77.0839 16.0393 76.7633 17.1053 76.1219 17.92C75.4979 18.7173 74.6659 19.298 73.6259 19.662C72.5859 20.026 71.4593 20.208 70.2459 20.208C68.8593 20.208 67.4813 20 66.1119 19.584C64.7599 19.1507 63.5553 18.5613 62.4979 17.816L64.0839 14.722C64.2399 14.878 64.5173 15.086 64.9159 15.346C65.3146 15.5887 65.7999 15.84 66.3719 16.1C66.9439 16.3427 67.5679 16.5507 68.2439 16.724C68.9199 16.8973 69.6046 16.984 70.2979 16.984C72.2739 16.984 73.2619 16.3513 73.2619 15.086C73.2619 14.5487 73.0626 14.1153 72.6639 13.786C72.2653 13.4567 71.7019 13.1793 70.9739 12.954C70.2633 12.7287 69.4313 12.4773 68.4779 12.2C67.2993 11.8707 66.3199 11.5067 65.5399 11.108C64.7773 10.692 64.2053 10.1807 63.8239 9.574C63.4426 8.95 63.2519 8.16133 63.2519 7.208C63.2519 5.94267 63.5466 4.88533 64.1359 4.036C64.7426 3.16933 65.5573 2.51933 66.5799 2.086C67.6026 1.63533 68.7379 1.41 69.9859 1.41C71.2686 1.41 72.4646 1.618 73.5739 2.034C74.6833 2.45 75.6366 2.92667 76.4339 3.464L74.8479 6.376ZM88.0966 19.298C87.6286 19.506 87.0479 19.714 86.3546 19.922C85.6786 20.13 84.9766 20.234 84.2486 20.234C83.6072 20.234 83.0179 20.1213 82.4806 19.896C81.9432 19.6707 81.5099 19.3153 81.1806 18.83C80.8686 18.3273 80.7126 17.6773 80.7126 16.88V9.054H78.9186V6.376H80.7126V1.956H84.1966V6.376H87.0566V9.054H84.1966V15.71C84.1966 16.178 84.3179 16.516 84.5606 16.724C84.8206 16.932 85.1326 17.036 85.4966 17.036C85.8606 17.036 86.2159 16.9753 86.5626 16.854C86.9092 16.7327 87.1866 16.6287 87.3946 16.542L88.0966 19.298ZM90.5611 14.904V6.376H94.0451V14.15C94.0451 16.2473 94.7991 17.296 96.3071 17.296C96.9831 17.296 97.6331 17.0967 98.2571 16.698C98.8984 16.282 99.4184 15.658 99.8171 14.826V6.376H103.301V16.1C103.301 16.4813 103.362 16.75 103.483 16.906C103.604 17.0447 103.821 17.1313 104.133 17.166V20C103.786 20.0693 103.492 20.1127 103.249 20.13C103.024 20.1473 102.816 20.156 102.625 20.156C102.001 20.156 101.49 20.0173 101.091 19.74C100.71 19.4453 100.484 19.0467 100.415 18.544L100.337 17.452C99.7304 18.388 98.9504 19.09 97.9971 19.558C97.0437 20.026 95.9951 20.26 94.8511 20.26C93.4471 20.26 92.3811 19.8093 91.6531 18.908C90.9251 17.9893 90.5611 16.6547 90.5611 14.904ZM106.711 13.188C106.711 11.888 106.971 10.7007 107.491 9.626C108.011 8.55133 108.731 7.702 109.649 7.078C110.568 6.454 111.617 6.142 112.795 6.142C113.801 6.142 114.702 6.39333 115.499 6.896C116.314 7.38133 116.947 8.00533 117.397 8.768V1.02H120.881V16.1C120.881 16.4813 120.942 16.75 121.063 16.906C121.185 17.0447 121.393 17.1313 121.687 17.166V20C121.063 20.1213 120.569 20.182 120.205 20.182C119.581 20.182 119.061 20.026 118.645 19.714C118.247 19.402 118.021 18.9947 117.969 18.492L117.917 17.634C117.415 18.4833 116.73 19.1333 115.863 19.584C115.014 20.0347 114.121 20.26 113.185 20.26C111.92 20.26 110.802 19.948 109.831 19.324C108.861 18.6827 108.098 17.8333 107.543 16.776C106.989 15.7013 106.711 14.5053 106.711 13.188ZM117.397 15.008V11.758C117.12 10.9953 116.643 10.3627 115.967 9.86C115.291 9.35733 114.598 9.106 113.887 9.106C113.177 9.106 112.553 9.30533 112.015 9.704C111.478 10.0853 111.062 10.5967 110.767 11.238C110.473 11.862 110.325 12.538 110.325 13.266C110.325 14.0113 110.49 14.696 110.819 15.32C111.149 15.9267 111.591 16.412 112.145 16.776C112.717 17.1227 113.367 17.296 114.095 17.296C114.754 17.296 115.404 17.0793 116.045 16.646C116.704 16.2127 117.155 15.6667 117.397 15.008ZM125.081 4.478V1.02H128.565V4.478H125.081ZM125.081 20V6.376H128.565V20H125.081ZM138.78 20.26C137.289 20.26 136.007 19.9393 134.932 19.298C133.875 18.6393 133.06 17.7727 132.488 16.698C131.916 15.6233 131.63 14.462 131.63 13.214C131.63 11.9487 131.916 10.7787 132.488 9.704C133.077 8.62933 133.901 7.77133 134.958 7.13C136.033 6.47133 137.307 6.142 138.78 6.142C140.253 6.142 141.519 6.47133 142.576 7.13C143.651 7.77133 144.474 8.62933 145.046 9.704C145.618 10.7787 145.904 11.9487 145.904 13.214C145.904 14.462 145.618 15.6233 145.046 16.698C144.474 17.7727 143.651 18.6393 142.576 19.298C141.519 19.9393 140.253 20.26 138.78 20.26ZM135.218 13.214C135.218 14.0113 135.374 14.722 135.686 15.346C135.998 15.9527 136.423 16.4293 136.96 16.776C137.497 17.1227 138.104 17.296 138.78 17.296C139.439 17.296 140.037 17.1227 140.574 16.776C141.111 16.412 141.536 15.9267 141.848 15.32C142.177 14.696 142.342 13.9853 142.342 13.188C142.342 12.408 142.177 11.7147 141.848 11.108C141.536 10.484 141.111 9.99867 140.574 9.652C140.037 9.288 139.439 9.106 138.78 9.106C138.104 9.106 137.497 9.288 136.96 9.652C136.423 9.99867 135.998 10.484 135.686 11.108C135.374 11.7147 135.218 12.4167 135.218 13.214Z" fill="black"/>
<path d="M10.242 1.592V0.592H8.79952L9.30555 1.94281L10.242 1.592ZM13.57 1.592L14.5154 1.26613L14.2831 0.592H13.57V1.592ZM15.676 7.702L14.7306 8.02787L15.6702 10.7539L16.6202 8.03146L15.676 7.702ZM17.808 1.592V0.592H17.0978L16.8638 1.26254L17.808 1.592ZM21.11 1.592L22.0455 1.94534L22.5567 0.592H21.11V1.592ZM17.938 9.99L17.0025 9.63665L16.8654 9.99957L17.009 10.36L17.938 9.99ZM20.278 15.866L19.349 16.236L20.319 18.6717L21.2174 16.2087L20.278 15.866ZM25.504 1.54V0.539999H24.8043L24.5646 1.1973L25.504 1.54ZM29.404 1.54L30.3325 1.91139L30.881 0.539999H29.404V1.54ZM22.02 20V21H22.697L22.9485 20.3714L22.02 20ZM18.926 20L18.0038 20.3868L18.2611 21H18.926V20ZM15.676 12.252L16.5982 11.8652L15.6723 9.65793L14.7527 11.8678L15.676 12.252ZM12.452 20V21H13.119L13.3753 20.3842L12.452 20ZM9.358 20L8.42907 20.3703L8.68008 21H9.358V20ZM2 1.54V0.539999H0.524898L1.07107 1.91026L2 1.54ZM5.848 1.54L6.78689 1.19579L6.54648 0.539999H5.848V1.54ZM11.1 15.866L10.1611 16.2102L11.0718 18.6944L12.0319 16.2288L11.1 15.866ZM13.388 9.99L14.3198 10.3528L14.4584 9.9969L14.3244 9.63919L13.388 9.99ZM10.242 2.592H13.57V0.592H10.242V2.592ZM12.6246 1.91787L14.7306 8.02787L16.6214 7.37613L14.5154 1.26613L12.6246 1.91787ZM16.6202 8.03146L18.7522 1.92146L16.8638 1.26254L14.7318 7.37254L16.6202 8.03146ZM17.808 2.592H21.11V0.592H17.808V2.592ZM20.1745 1.23866L17.0025 9.63665L18.8735 10.3433L22.0455 1.94534L20.1745 1.23866ZM17.009 10.36L19.349 16.236L21.207 15.496L18.867 9.62003L17.009 10.36ZM21.2174 16.2087L26.4434 1.8827L24.5646 1.1973L19.3386 15.5233L21.2174 16.2087ZM25.504 2.54H29.404V0.539999H25.504V2.54ZM28.4755 1.16861L21.0915 19.6286L22.9485 20.3714L30.3325 1.91139L28.4755 1.16861ZM22.02 19H18.926V21H22.02V19ZM19.8482 19.6132L16.5982 11.8652L14.7538 12.6388L18.0038 20.3868L19.8482 19.6132ZM14.7527 11.8678L11.5287 19.6158L13.3753 20.3842L16.5993 12.6362L14.7527 11.8678ZM12.452 19H9.358V21H12.452V19ZM10.2869 19.6297L2.92893 1.16974L1.07107 1.91026L8.42907 20.3703L10.2869 19.6297ZM2 2.54H5.848V0.539999H2V2.54ZM4.90911 1.8842L10.1611 16.2102L12.0389 15.5218L6.78689 1.19579L4.90911 1.8842ZM12.0319 16.2288L14.3198 10.3528L12.4562 9.62716L10.1682 15.5032L12.0319 16.2288ZM14.3244 9.63919L11.1784 1.24119L9.30555 1.94281L12.4516 10.3408L14.3244 9.63919ZM32.405 19.298L31.8863 20.153L31.8925 20.1567L32.405 19.298ZM29.935 16.75L29.0581 17.2308L29.0615 17.2369L29.935 16.75ZM29.909 9.73L29.0289 9.25506L29.0262 9.26015L29.909 9.73ZM32.405 7.13L32.9175 7.98877L32.9275 7.9826L32.405 7.13ZM40.075 7.13L39.5462 7.97884L39.5564 7.98501L40.075 7.13ZM42.493 9.704L41.6044 10.1626L41.6088 10.1713L41.6134 10.1798L42.493 9.704ZM43.273 14.306V15.306H44.1275L44.2607 14.462L43.273 14.306ZM32.743 14.306V13.306H31.6576L31.7463 14.3877L32.743 14.306ZM33.913 16.802L33.2544 17.5546L33.2637 17.5626L33.913 16.802ZM38.307 17.218L38.7841 18.0969L38.7926 18.0922L38.307 17.218ZM39.581 15.866L39.849 14.9026L38.9901 14.6636L38.6545 15.4896L39.581 15.866ZM42.571 16.698L43.4713 17.1332L43.9922 16.0555L42.839 15.7346L42.571 16.698ZM40.153 19.272L40.6635 20.1319L40.6733 20.1259L40.153 19.272ZM32.665 12.096L31.6685 12.0116L31.5766 13.096H32.665V12.096ZM39.789 12.096V13.096H40.8958L40.7838 11.9948L39.789 12.096ZM38.619 9.626L37.9214 10.3425L37.9309 10.3518L37.9407 10.3608L38.619 9.626ZM33.783 9.626L34.4707 10.352L34.4712 10.3515L33.783 9.626ZM36.227 19.26C34.9018 19.26 33.8116 18.9729 32.9174 18.4393L31.8925 20.1567C33.1477 20.9058 34.6055 21.26 36.227 21.26V19.26ZM32.9236 18.443C32.0111 17.8895 31.3115 17.1657 30.8085 16.2631L29.0615 17.2369C29.7371 18.449 30.6842 19.4238 31.8864 20.153L32.9236 18.443ZM30.8118 16.2692C30.3048 15.3447 30.051 14.3491 30.051 13.266H28.051C28.051 14.6789 28.3865 16.006 29.0582 17.2308L30.8118 16.2692ZM30.051 13.266C30.051 12.1381 30.3009 11.1221 30.7917 10.1998L29.0262 9.26015C28.3731 10.4873 28.051 11.8285 28.051 13.266H30.051ZM30.789 10.2049C31.2919 9.27309 31.9963 8.53844 32.9174 7.98871L31.8925 6.27129C30.6644 7.00422 29.7047 8.00291 29.0289 9.25507L30.789 10.2049ZM32.9275 7.9826C33.8182 7.43669 34.9127 7.142 36.253 7.142V5.142C34.6119 5.142 33.141 5.50598 31.8824 6.2774L32.9275 7.9826ZM36.253 7.142C37.5938 7.142 38.6763 7.43687 39.5462 7.97878L40.6037 6.28122C39.359 5.50579 37.8935 5.142 36.253 5.142V7.142ZM39.5564 7.98501C40.4599 8.53309 41.1361 9.2555 41.6044 10.1626L43.3816 9.24536C42.7405 8.00317 41.8047 7.00958 40.5936 6.27499L39.5564 7.98501ZM41.6134 10.1798C42.1044 11.0874 42.351 12.0674 42.351 13.136H44.351C44.351 11.7433 44.0255 10.4352 43.3725 9.22818L41.6134 10.1798ZM42.351 13.136C42.351 13.5513 42.3268 13.8866 42.2852 14.15L44.2607 14.462C44.3231 14.0667 44.351 13.622 44.351 13.136H42.351ZM43.273 13.306H32.743V15.306H43.273V13.306ZM31.7463 14.3877C31.8507 15.6617 32.3357 16.7507 33.2545 17.5546L34.5715 16.0494C34.1036 15.64 33.8085 15.0649 33.7396 14.2243L31.7463 14.3877ZM33.2637 17.5626C34.152 18.3209 35.1959 18.712 36.357 18.712V16.712C35.6808 16.712 35.0953 16.4965 34.5622 16.0414L33.2637 17.5626ZM36.357 18.712C37.2162 18.712 38.0303 18.5061 38.7841 18.0969L37.8299 16.3391C37.3703 16.5886 36.8844 16.712 36.357 16.712V18.712ZM38.7926 18.0922C39.5762 17.6569 40.1805 17.0471 40.5074 16.2424L38.6545 15.4896C38.5308 15.7942 38.2858 16.0858 37.8213 16.3438L38.7926 18.0922ZM39.3129 16.8294L42.3029 17.6614L42.839 15.7346L39.849 14.9026L39.3129 16.8294ZM41.6706 16.2628C41.2618 17.1086 40.5987 17.8293 39.6326 18.4181L40.6733 20.1259C41.9259 19.3627 42.8748 18.3674 43.4713 17.1332L41.6706 16.2628ZM39.6424 18.4121C38.712 18.9646 37.586 19.26 36.227 19.26V21.26C37.884 21.26 39.3753 20.8968 40.6635 20.1319L39.6424 18.4121ZM32.665 13.096H39.789V11.096H32.665V13.096ZM40.7838 11.9948C40.6583 10.76 40.1739 9.70044 39.2972 8.8912L37.9407 10.3608C38.416 10.7996 38.7117 11.3867 38.7941 12.1972L40.7838 11.9948ZM39.3166 8.90953C38.4637 8.07905 37.4042 7.664 36.201 7.664V9.664C36.9044 9.664 37.4569 9.89028 37.9214 10.3425L39.3166 8.90953ZM36.201 7.664C35.0101 7.664 33.9574 8.08205 33.0947 8.90054L34.4712 10.3515C34.9605 9.88728 35.5198 9.664 36.201 9.664V7.664ZM33.0952 8.90005C32.2349 9.71507 31.773 10.7788 31.6685 12.0116L33.6614 12.1804C33.7303 11.3679 34.0137 10.7849 34.4707 10.352L33.0952 8.90005ZM51.2194 19.558L50.7213 20.4251L51.2194 19.558ZM49.2954 17.634L50.1625 17.1359L48.2954 13.8857V17.634H49.2954ZM49.2954 20V21H50.2954V20H49.2954ZM46.2534 20H45.2534V21H46.2534V20ZM46.2534 1.02V0.0199995H45.2534V1.02H46.2534ZM49.7374 1.02H50.7374V0.0199995H49.7374V1.02ZM49.7374 8.768H48.7374V12.4004L50.5965 9.2798L49.7374 8.768ZM51.6354 6.844L51.1292 5.98154L51.1209 5.98651L51.6354 6.844ZM57.5114 7.13L56.9139 7.93188L56.9227 7.93843L56.9317 7.94479L57.5114 7.13ZM59.6174 9.704L60.5232 9.28031V9.28031L59.6174 9.704ZM59.5394 16.802L60.425 17.2666L59.5394 16.802ZM57.2514 19.324L56.7106 18.4828L56.7038 18.4873L57.2514 19.324ZM54.9894 16.75L54.4525 15.9063L54.4408 15.914L54.9894 16.75ZM56.3154 15.294L55.431 14.8272L55.4261 14.8367L56.3154 15.294ZM56.3414 11.212L55.4327 11.6295L55.4396 11.6445L55.447 11.6592L56.3414 11.212ZM55.0934 9.678L54.5147 10.4935L55.0934 9.678ZM51.1414 9.886L51.7688 10.6648L51.7712 10.6628L51.1414 9.886ZM49.7374 11.758L48.815 11.3719L48.7374 11.5571V11.758H49.7374ZM49.7374 15.008H48.7374V15.1703L48.7887 15.3242L49.7374 15.008ZM51.0634 16.672L50.5138 17.5074L50.5216 17.5125L50.5294 17.5175L51.0634 16.672ZM54.0014 19.26C53.1171 19.26 52.3649 19.0627 51.7175 18.6909L50.7213 20.4251C51.7033 20.9893 52.8058 21.26 54.0014 21.26V19.26ZM51.7175 18.6909C51.0564 18.3111 50.5424 17.7971 50.1625 17.1359L48.4283 18.1321C48.9845 19.1003 49.7532 19.8689 50.7213 20.4251L51.7175 18.6909ZM48.2954 17.634V20H50.2954V17.634H48.2954ZM49.2954 19H46.2534V21H49.2954V19ZM47.2534 20V1.02H45.2534V20H47.2534ZM46.2534 2.02H49.7374V0.0199995H46.2534V2.02ZM48.7374 1.02V8.768H50.7374V1.02H48.7374ZM50.5965 9.2798C51.001 8.60081 51.5177 8.08083 52.1499 7.70149L51.1209 5.98651C50.1932 6.54317 49.4445 7.30585 48.8783 8.2562L50.5965 9.2798ZM52.1416 7.70641C52.7645 7.34081 53.5121 7.142 54.4174 7.142V5.142C53.2081 5.142 52.101 5.41119 51.1292 5.98158L52.1416 7.70641ZM54.4174 7.142C55.3966 7.142 56.2149 7.411 56.9139 7.93188L58.1089 6.32812C57.04 5.53167 55.7956 5.142 54.4174 5.142V7.142ZM56.9317 7.94479C57.6822 8.47884 58.2766 9.19763 58.7116 10.1277L60.5232 9.28031C59.9529 8.06103 59.1433 7.06382 58.0912 6.31521L56.9317 7.94479ZM58.7116 10.1277C59.1473 11.0592 59.3714 12.0917 59.3714 13.24H61.3714C61.3714 11.823 61.0929 10.4981 60.5232 9.28031L58.7116 10.1277ZM59.3714 13.24C59.3714 14.4125 59.1258 15.4378 58.6539 16.3375L60.425 17.2666C61.0623 16.0516 61.3714 14.7021 61.3714 13.24H59.3714ZM58.6539 16.3375C58.1767 17.2471 57.5306 17.9557 56.7107 18.4828L57.7922 20.1652C58.9136 19.4443 59.7928 18.4716 60.425 17.2666L58.6539 16.3375ZM56.7038 18.4873C55.924 18.9977 55.0334 19.26 54.0014 19.26V21.26C55.3961 21.26 56.6722 20.8983 57.7991 20.1607L56.7038 18.4873ZM53.0394 18.296C53.9548 18.296 54.8008 18.0699 55.5381 17.586L54.4408 15.914C54.0687 16.1581 53.6147 16.296 53.0394 16.296V18.296ZM55.5263 17.5937C56.2489 17.1338 56.8121 16.5147 57.2047 15.7513L55.4261 14.8367C55.1947 15.2866 54.8739 15.6382 54.4525 15.9063L55.5263 17.5937ZM57.1998 15.7608C57.6075 14.9882 57.8094 14.1513 57.8094 13.266H55.8094C55.8094 13.8367 55.682 14.3518 55.431 14.8272L57.1998 15.7608ZM57.8094 13.266C57.8094 12.3763 57.622 11.537 57.2359 10.7648L55.447 11.6592C55.6849 12.135 55.8094 12.665 55.8094 13.266H57.8094ZM57.2501 10.7945C56.8876 10.0056 56.3626 9.3525 55.6722 8.86249L54.5147 10.4935C54.8989 10.7662 55.2059 11.1357 55.4327 11.6295L57.2501 10.7945ZM55.6722 8.86249C54.9566 8.35465 54.1366 8.106 53.2474 8.106V10.106C53.7449 10.106 54.1556 10.2387 54.5147 10.4935L55.6722 8.86249ZM53.2474 8.106C52.2359 8.106 51.3153 8.45759 50.5116 9.10924L51.7712 10.6628C52.2502 10.2744 52.7336 10.106 53.2474 10.106V8.106ZM50.5141 9.10725C49.7595 9.71513 49.1906 10.4745 48.815 11.3719L50.6599 12.1441C50.9082 11.5508 51.2754 11.0622 51.7688 10.6648L50.5141 9.10725ZM48.7374 11.758V15.008H50.7374V11.758H48.7374ZM48.7887 15.3242C49.0927 16.236 49.6888 16.9646 50.5138 17.5074L51.613 15.8366C51.1207 15.5127 50.8328 15.132 50.6861 14.6918L48.7887 15.3242ZM50.5294 17.5175C51.3183 18.0157 52.1595 18.296 53.0394 18.296V16.296C52.602 16.296 52.1259 16.1603 51.5974 15.8265L50.5294 17.5175ZM74.8479 6.376L74.1046 7.04496L75.0501 8.0955L75.7261 6.8543L74.8479 6.376ZM73.8599 5.7L73.3542 6.5627L73.3655 6.56929L73.3769 6.57558L73.8599 5.7ZM72.0399 4.92L71.7096 5.86386L71.7236 5.86875L71.7377 5.87323L72.0399 4.92ZM68.8159 8.586L68.4997 9.53468L68.8159 8.586ZM71.1559 9.262L70.905 10.23L70.9069 10.2305L71.1559 9.262ZM74.3019 10.354L73.8761 11.2588L73.8829 11.262L74.3019 10.354ZM76.3559 12.018L75.5271 12.5775L75.5352 12.5895L75.5436 12.6012L76.3559 12.018ZM76.1219 17.92L75.3362 17.3014L75.3344 17.3037L76.1219 17.92ZM73.6259 19.662L73.2956 18.7181L73.6259 19.662ZM66.1119 19.584L65.8067 20.5363L65.814 20.5386L65.8213 20.5408L66.1119 19.584ZM62.4979 17.816L61.608 17.3598L61.2118 18.1329L61.9218 18.6333L62.4979 17.816ZM64.0839 14.722L64.791 14.0149L63.8203 13.0441L63.194 14.2658L64.0839 14.722ZM64.9159 15.346L64.3697 16.1836L64.3827 16.1921L64.396 16.2002L64.9159 15.346ZM66.3719 16.1L65.9581 17.0104L65.9697 17.0156L65.9814 17.0206L66.3719 16.1ZM68.2439 16.724L67.9956 17.6927L68.2439 16.724ZM72.6639 13.786L72.0271 14.557L72.6639 13.786ZM70.9739 12.954L70.6717 13.9073L70.6783 13.9093L70.9739 12.954ZM68.4779 12.2L68.7573 11.2397L68.747 11.2369L68.4779 12.2ZM65.5399 11.108L65.0611 11.9859L65.0729 11.9923L65.0848 11.9984L65.5399 11.108ZM63.8239 9.574L62.9706 10.0955L62.9773 10.1062L63.8239 9.574ZM64.1359 4.036L63.3167 3.46253L63.3144 3.46592L64.1359 4.036ZM66.5799 2.086L66.9701 3.00675L66.9767 3.00397L66.9832 3.00109L66.5799 2.086ZM76.4339 3.464L77.3121 3.9423L77.7473 3.14323L76.9928 2.63473L76.4339 3.464ZM75.5912 5.70704C75.31 5.39452 74.8416 5.09951 74.343 4.82442L73.3769 6.57558C73.6112 6.70487 73.7896 6.81361 73.9193 6.90231C73.9836 6.94632 74.0307 6.98185 74.0637 7.00898C74.098 7.03713 74.1084 7.04913 74.1046 7.04496L75.5912 5.70704ZM74.3657 4.8373C73.7838 4.49623 73.1052 4.2087 72.3422 3.96677L71.7377 5.87323C72.396 6.08197 72.9307 6.31444 73.3542 6.5627L74.3657 4.8373ZM72.3703 3.97614C71.5692 3.69576 70.7381 3.556 69.8819 3.556V5.556C70.5165 5.556 71.124 5.6589 71.7096 5.86386L72.3703 3.97614ZM69.8819 3.556C68.815 3.556 67.8358 3.73934 67.1006 4.25983C66.3021 4.82517 65.9439 5.67628 65.9439 6.636H67.9439C67.9439 6.20905 68.0755 6.02017 68.2563 5.89217C68.5004 5.71932 68.9902 5.556 69.8819 5.556V3.556ZM65.9439 6.636C65.9439 7.3625 66.1788 8.04289 66.7253 8.55901L68.0986 7.10499C68.021 7.03178 67.9439 6.91483 67.9439 6.636H65.9439ZM66.7253 8.55901C67.1844 8.99262 67.8041 9.3028 68.4997 9.53468L69.1322 7.63732C68.5798 7.4532 68.2635 7.26071 68.0986 7.10499L66.7253 8.55901ZM68.4997 9.53468C69.1527 9.75233 69.9562 9.98401 70.905 10.23L71.4069 8.294C70.4837 8.05466 69.7272 7.83567 69.1322 7.63732L68.4997 9.53468ZM70.9069 10.2305C72.0755 10.531 73.0622 10.8758 73.8761 11.2588L74.7277 9.44918C73.7737 9.00021 72.663 8.617 71.405 8.29351L70.9069 10.2305ZM73.8829 11.262C74.6496 11.6158 75.179 12.0617 75.5271 12.5775L77.1848 11.4585C76.5969 10.5876 75.757 9.92417 74.721 9.44604L73.8829 11.262ZM75.5436 12.6012C75.8704 13.0564 76.0839 13.7318 76.0839 14.722H78.0839C78.0839 13.4589 77.8121 12.3316 77.1683 11.4348L75.5436 12.6012ZM76.0839 14.722C76.0839 15.8766 75.8049 16.7061 75.3362 17.3014L76.9077 18.5386C77.7217 17.5046 78.0839 16.2021 78.0839 14.722H76.0839ZM75.3344 17.3037C74.8387 17.9371 74.1716 18.4115 73.2956 18.7181L73.9563 20.6059C75.1603 20.1845 76.1572 19.4976 76.9094 18.5363L75.3344 17.3037ZM73.2956 18.7181C72.372 19.0414 71.3581 19.208 70.2459 19.208V21.208C71.5604 21.208 72.7999 21.0106 73.9563 20.6059L73.2956 18.7181ZM70.2459 19.208C68.9609 19.208 67.6808 19.0155 66.4026 18.6272L65.8213 20.5408C67.2818 20.9845 68.7576 21.208 70.2459 21.208V19.208ZM66.4172 18.6317C65.1524 18.2264 64.0408 17.6801 63.0741 16.9987L61.9218 18.6333C63.0697 19.4425 64.3674 20.075 65.8067 20.5363L66.4172 18.6317ZM63.3878 18.2722L64.9738 15.1782L63.194 14.2658L61.608 17.3598L63.3878 18.2722ZM63.3768 15.4291C63.6113 15.6636 63.9637 15.9188 64.3697 16.1836L65.4622 14.5084C65.0709 14.2532 64.8686 14.0924 64.791 14.0149L63.3768 15.4291ZM64.396 16.2002C64.8383 16.4694 65.3613 16.7391 65.9581 17.0104L66.7857 15.1896C66.2386 14.9409 65.7909 14.7079 65.4359 14.4918L64.396 16.2002ZM65.9814 17.0206C66.6047 17.285 67.2768 17.5084 67.9956 17.6927L68.4923 15.7553C67.859 15.593 67.2831 15.4003 66.7625 15.1794L65.9814 17.0206ZM67.9956 17.6927C68.7522 17.8867 69.5203 17.984 70.2979 17.984V15.984C69.6889 15.984 69.0877 15.908 68.4923 15.7553L67.9956 17.6927ZM70.2979 17.984C71.3605 17.984 72.3292 17.8197 73.0602 17.3516C73.8672 16.8349 74.2619 16.0276 74.2619 15.086H72.2619C72.2619 15.4098 72.1626 15.5515 71.9817 15.6674C71.7246 15.832 71.2113 15.984 70.2979 15.984V17.984ZM74.2619 15.086C74.2619 14.2638 73.9396 13.5427 73.3008 13.015L72.0271 14.557C72.1856 14.6879 72.2619 14.8335 72.2619 15.086H74.2619ZM73.3008 13.015C72.7657 12.573 72.0685 12.246 71.2696 11.9987L70.6783 13.9093C71.3354 14.1127 71.7648 14.3404 72.0271 14.557L73.3008 13.015ZM71.2762 12.0008C70.5559 11.7724 69.7159 11.5187 68.7573 11.2398L68.1986 13.1602C69.1466 13.436 69.9706 13.6849 70.6717 13.9072L71.2762 12.0008ZM68.747 11.2369C67.6094 10.919 66.6974 10.5766 65.995 10.2176L65.0848 11.9984C65.9424 12.4368 66.9891 12.8223 68.2088 13.1631L68.747 11.2369ZM66.0188 10.2301C65.3745 9.87869 64.9434 9.4759 64.6706 9.04183L62.9773 10.1062C63.4671 10.8854 64.18 11.5053 65.0611 11.9859L66.0188 10.2301ZM64.6772 9.05255C64.4168 8.62647 64.2519 8.03204 64.2519 7.208H62.2519C62.2519 8.29062 62.4684 9.27353 62.9707 10.0954L64.6772 9.05255ZM64.2519 7.208C64.2519 6.1002 64.5082 5.25366 64.9575 4.60608L63.3144 3.46592C62.585 4.51701 62.2519 5.78513 62.2519 7.208H64.2519ZM64.9552 4.60946C65.4487 3.90437 66.1112 3.3707 66.9701 3.00675L66.1898 1.16525C65.0034 1.66796 64.0365 2.43429 63.3167 3.46254L64.9552 4.60946ZM66.9832 3.00109C67.8647 2.61262 68.8605 2.41 69.9859 2.41V0.409999C68.6153 0.409999 67.3405 0.658048 66.1767 1.17091L66.9832 3.00109ZM69.9859 2.41C71.1586 2.41 72.2347 2.59979 73.2228 2.97033L73.9251 1.09767C72.6945 0.636211 71.3786 0.409999 69.9859 0.409999V2.41ZM73.2228 2.97033C74.2751 3.36495 75.1555 3.80832 75.8751 4.29327L76.9928 2.63473C76.1177 2.04501 75.0914 1.53505 73.9251 1.09767L73.2228 2.97033ZM75.5557 2.9857L73.9697 5.8977L75.7261 6.8543L77.3121 3.9423L75.5557 2.9857ZM88.0966 19.298L88.5027 20.2118L89.2739 19.869L89.0656 19.0512L88.0966 19.298ZM86.3546 19.922L86.0672 18.9641L86.0605 18.9662L86.3546 19.922ZM81.1806 18.83L80.3309 19.3574L80.3417 19.3747L80.3531 19.3915L81.1806 18.83ZM80.7126 9.054H81.7126V8.054H80.7126V9.054ZM78.9186 9.054H77.9186V10.054H78.9186V9.054ZM78.9186 6.376V5.376H77.9186V6.376H78.9186ZM80.7126 6.376V7.376H81.7126V6.376H80.7126ZM80.7126 1.956V0.956H79.7126V1.956H80.7126ZM84.1966 1.956H85.1966V0.956H84.1966V1.956ZM84.1966 6.376H83.1966V7.376H84.1966V6.376ZM87.0566 6.376H88.0566V5.376H87.0566V6.376ZM87.0566 9.054V10.054H88.0566V9.054H87.0566ZM84.1966 9.054V8.054H83.1966V9.054H84.1966ZM84.5606 16.724L83.9098 17.4833L83.9226 17.4943L83.9359 17.5049L84.5606 16.724ZM86.5626 16.854L86.2322 15.9101L86.5626 16.854ZM87.3946 16.542L88.3636 16.2952L88.078 15.1739L87.0099 15.6189L87.3946 16.542ZM87.6904 18.3842C87.2732 18.5696 86.7352 18.7638 86.0672 18.9642L86.6419 20.8798C87.3606 20.6642 87.9839 20.4424 88.5027 20.2118L87.6904 18.3842ZM86.0605 18.9662C85.4825 19.1441 84.8798 19.234 84.2486 19.234V21.234C85.0733 21.234 85.8746 21.1159 86.6487 20.8778L86.0605 18.9662ZM84.2486 19.234C83.7266 19.234 83.2704 19.1428 82.8673 18.9738L82.0938 20.8182C82.7654 21.0998 83.4879 21.234 84.2486 21.234V19.234ZM82.8673 18.9738C82.51 18.824 82.2293 18.5946 82.008 18.2685L80.3531 19.3915C80.7905 20.0361 81.3765 20.5174 82.0938 20.8182L82.8673 18.9738ZM82.0302 18.3026C81.8451 18.0043 81.7126 17.5538 81.7126 16.88H79.7126C79.7126 17.8009 79.8921 18.6503 80.3309 19.3574L82.0302 18.3026ZM81.7126 16.88V9.054H79.7126V16.88H81.7126ZM80.7126 8.054H78.9186V10.054H80.7126V8.054ZM79.9186 9.054V6.376H77.9186V9.054H79.9186ZM78.9186 7.376H80.7126V5.376H78.9186V7.376ZM81.7126 6.376V1.956H79.7126V6.376H81.7126ZM80.7126 2.956H84.1966V0.956H80.7126V2.956ZM83.1966 1.956V6.376H85.1966V1.956H83.1966ZM84.1966 7.376H87.0566V5.376H84.1966V7.376ZM86.0566 6.376V9.054H88.0566V6.376H86.0566ZM87.0566 8.054H84.1966V10.054H87.0566V8.054ZM83.1966 9.054V15.71H85.1966V9.054H83.1966ZM83.1966 15.71C83.1966 16.3313 83.3583 17.0106 83.9098 17.4833L85.2114 15.9647C85.2374 15.9871 85.2382 16.0029 85.2288 15.9766C85.2168 15.9433 85.1966 15.8619 85.1966 15.71H83.1966ZM83.9359 17.5049C84.39 17.8682 84.9281 18.036 85.4966 18.036V16.036C85.3371 16.036 85.2511 15.9958 85.1853 15.9431L83.9359 17.5049ZM85.4966 18.036C85.9741 18.036 86.441 17.956 86.8929 17.7979L86.2322 15.9101C85.9907 15.9947 85.747 16.036 85.4966 16.036V18.036ZM86.8929 17.7979C87.2481 17.6736 87.5458 17.5623 87.7792 17.4651L87.0099 15.6189C86.8274 15.695 86.5704 15.7918 86.2322 15.9101L86.8929 17.7979ZM86.4255 16.7888L87.1275 19.5448L89.0656 19.0512L88.3636 16.2952L86.4255 16.7888ZM90.5611 6.376V5.376H89.5611V6.376H90.5611ZM94.0451 6.376H95.0451V5.376H94.0451V6.376ZM98.2571 16.698L98.7955 17.5407L98.8013 17.537L98.2571 16.698ZM99.8171 14.826L100.719 15.2581L100.817 15.0532V14.826H99.8171ZM99.8171 6.376V5.376H98.8171V6.376H99.8171ZM103.301 6.376H104.301V5.376H103.301V6.376ZM103.483 16.906L102.694 17.5199L102.711 17.5428L102.73 17.5645L103.483 16.906ZM104.133 17.166H105.133V16.271L104.244 16.1721L104.133 17.166ZM104.133 20L104.329 20.9806L105.133 20.8198V20H104.133ZM103.249 20.13L103.178 19.1325L103.172 19.1329L103.249 20.13ZM101.091 19.74L100.48 20.5313L100.499 20.5466L100.52 20.5609L101.091 19.74ZM100.415 18.544L99.4176 18.6152L99.42 18.6481L99.4245 18.6806L100.415 18.544ZM100.337 17.452L101.335 17.3808L101.122 14.4027L99.4979 16.9081L100.337 17.452ZM97.9971 19.558L98.4378 20.4557L97.9971 19.558ZM91.6531 18.908L90.8693 19.5291L90.8751 19.5363L91.6531 18.908ZM91.5611 14.904V6.376H89.5611V14.904H91.5611ZM90.5611 7.376H94.0451V5.376H90.5611V7.376ZM93.0451 6.376V14.15H95.0451V6.376H93.0451ZM93.0451 14.15C93.0451 15.2885 93.2443 16.3223 93.7987 17.0933C94.3969 17.9252 95.2928 18.296 96.3071 18.296V16.296C95.8133 16.296 95.5783 16.1424 95.4225 15.9257C95.2228 15.648 95.0451 15.1089 95.0451 14.15H93.0451ZM96.3071 18.296C97.1919 18.296 98.0266 18.0319 98.7955 17.5407L97.7187 15.8553C97.2395 16.1614 96.7742 16.296 96.3071 16.296V18.296ZM98.8013 17.537C99.6262 17.0019 100.257 16.2216 100.719 15.2581L98.9153 14.3939C98.5796 15.0944 98.1707 15.5621 97.7129 15.859L98.8013 17.537ZM100.817 14.826V6.376H98.8171V14.826H100.817ZM99.8171 7.376H103.301V5.376H99.8171V7.376ZM102.301 6.376V16.1H104.301V6.376H102.301ZM102.301 16.1C102.301 16.527 102.357 17.087 102.694 17.5199L104.272 16.2921C104.33 16.3663 104.332 16.4111 104.322 16.3672C104.313 16.3268 104.301 16.2426 104.301 16.1H102.301ZM102.73 17.5645C103.099 17.9856 103.624 18.1156 104.023 18.1599L104.244 16.1721C104.198 16.167 104.164 16.161 104.141 16.1556C104.117 16.1502 104.107 16.1462 104.108 16.1465C104.108 16.1466 104.168 16.1706 104.236 16.2475L102.73 17.5645ZM103.133 17.166V20H105.133V17.166H103.133ZM103.937 19.0194C103.615 19.0838 103.364 19.1192 103.178 19.1325L103.32 21.1275C103.619 21.1061 103.958 21.0548 104.329 20.9806L103.937 19.0194ZM103.172 19.1329C102.968 19.1487 102.786 19.156 102.625 19.156V21.156C102.846 21.156 103.079 21.146 103.326 21.1271L103.172 19.1329ZM102.625 19.156C102.147 19.156 101.851 19.0506 101.662 18.9191L100.52 20.5609C101.128 20.9841 101.855 21.156 102.625 21.156V19.156ZM101.703 18.9487C101.54 18.8233 101.441 18.6658 101.406 18.4074L99.4245 18.6806C99.5275 19.4275 99.8792 20.0673 100.48 20.5313L101.703 18.9487ZM101.413 18.4728L101.335 17.3808L99.3396 17.5232L99.4176 18.6152L101.413 18.4728ZM99.4979 16.9081C98.9845 17.7003 98.3391 18.2761 97.5564 18.6603L98.4378 20.4557C99.5618 19.9039 100.476 19.0757 101.176 17.9959L99.4979 16.9081ZM97.5564 18.6603C96.7506 19.0559 95.8543 19.26 94.8511 19.26V21.26C96.1358 21.26 97.3369 20.9961 98.4378 20.4557L97.5564 18.6603ZM94.8511 19.26C93.6785 19.26 92.9288 18.8959 92.431 18.2797L90.8751 19.5363C91.8334 20.7227 93.2157 21.26 94.8511 21.26V19.26ZM92.4368 18.2869C91.9032 17.6135 91.5611 16.5358 91.5611 14.904H89.5611C89.5611 16.7735 89.947 18.3651 90.8693 19.5291L92.4368 18.2869ZM107.491 9.626L108.392 10.0616L107.491 9.626ZM109.649 7.078L110.211 7.90522L109.649 7.078ZM115.499 6.896L114.966 7.74193L114.977 7.74865L114.988 7.7551L115.499 6.896ZM117.397 8.768L116.536 9.27673L118.397 12.426V8.768H117.397ZM117.397 1.02V0.0199995H116.397V1.02H117.397ZM120.881 1.02H121.881V0.0199995H120.881V1.02ZM121.063 16.906L120.274 17.5199L120.292 17.5428L120.311 17.5645L121.063 16.906ZM121.687 17.166H122.687V16.2768L121.804 16.1728L121.687 17.166ZM121.687 20L121.878 20.9816L122.687 20.8243V20H121.687ZM118.645 19.714L118.029 20.5015L118.037 20.5078L118.045 20.514L118.645 19.714ZM117.969 18.492L116.971 18.5525L116.972 18.5737L116.975 18.5949L117.969 18.492ZM117.917 17.634L118.916 17.5735L118.718 14.3175L117.057 17.1247L117.917 17.634ZM115.863 19.584L115.402 18.6968L115.395 18.7007L115.863 19.584ZM109.831 19.324L109.28 20.1584L109.291 20.1652L109.831 19.324ZM107.543 16.776L106.655 17.2347L106.658 17.2405L107.543 16.776ZM117.397 15.008L118.336 15.3537L118.397 15.1864V15.008H117.397ZM117.397 11.758H118.397V11.5818L118.337 11.4163L117.397 11.758ZM115.967 9.86L115.371 10.6625L115.967 9.86ZM112.015 9.704L112.594 10.5195L112.603 10.5134L112.611 10.5071L112.015 9.704ZM110.767 11.238L111.672 11.665L111.676 11.6555L110.767 11.238ZM110.819 15.32L109.935 15.7868L109.94 15.7971L110.819 15.32ZM112.145 16.776L111.597 17.612L111.612 17.6219L111.627 17.6312L112.145 16.776ZM116.045 16.646L115.496 15.8105L115.485 15.8174L116.045 16.646ZM107.711 13.188C107.711 12.0252 107.943 10.9887 108.392 10.0616L106.591 9.19044C106 10.4127 105.711 11.7508 105.711 13.188H107.711ZM108.392 10.0616C108.841 9.13262 109.449 8.42323 110.211 7.90522L109.087 6.25078C108.013 6.98077 107.182 7.97005 106.591 9.19044L108.392 10.0616ZM110.211 7.90522C110.954 7.40087 111.804 7.142 112.795 7.142V5.142C111.429 5.142 110.182 5.50713 109.087 6.25078L110.211 7.90522ZM112.795 7.142C113.625 7.142 114.339 7.3467 114.966 7.74193L116.033 6.05007C115.065 5.43997 113.976 5.142 112.795 5.142V7.142ZM114.988 7.7551C115.669 8.16094 116.177 8.66836 116.536 9.27673L118.258 8.25927C117.716 7.34231 116.959 6.60172 116.011 6.0369L114.988 7.7551ZM118.397 8.768V1.02H116.397V8.768H118.397ZM117.397 2.02H120.881V0.0199995H117.397V2.02ZM119.881 1.02V16.1H121.881V1.02H119.881ZM119.881 16.1C119.881 16.527 119.937 17.087 120.274 17.5199L121.853 16.2921C121.91 16.3663 121.912 16.4111 121.902 16.3672C121.893 16.3268 121.881 16.2426 121.881 16.1H119.881ZM120.311 17.5645C120.67 17.9747 121.172 18.1122 121.571 18.1592L121.804 16.1728C121.765 16.1682 121.736 16.1627 121.717 16.1582C121.698 16.1536 121.692 16.1506 121.695 16.1519C121.701 16.1546 121.756 16.1788 121.816 16.2475L120.311 17.5645ZM120.687 17.166V20H122.687V17.166H120.687ZM121.496 19.0184C120.896 19.1351 120.475 19.182 120.205 19.182V21.182C120.664 21.182 121.23 21.1076 121.878 20.9816L121.496 19.0184ZM120.205 19.182C119.753 19.182 119.456 19.0718 119.245 18.914L118.045 20.514C118.667 20.9802 119.409 21.182 120.205 21.182V19.182ZM119.262 18.9265C119.076 18.7815 118.988 18.6211 118.964 18.3891L116.975 18.5949C117.055 19.3682 117.417 20.0225 118.029 20.5015L119.262 18.9265ZM118.968 18.4315L118.916 17.5735L116.919 17.6945L116.971 18.5525L118.968 18.4315ZM117.057 17.1247C116.648 17.815 116.101 18.3333 115.402 18.6968L116.325 20.4712C117.359 19.9334 118.181 19.1517 118.778 18.1433L117.057 17.1247ZM115.395 18.7007C114.686 19.0769 113.953 19.26 113.185 19.26V21.26C114.289 21.26 115.342 20.9924 116.332 20.4673L115.395 18.7007ZM113.185 19.26C112.093 19.26 111.166 18.9932 110.372 18.4828L109.291 20.1652C110.438 20.9028 111.747 21.26 113.185 21.26V19.26ZM110.383 18.4897C109.557 17.9439 108.907 17.2234 108.429 16.3115L106.658 17.2405C107.289 18.4433 108.165 19.4214 109.28 20.1583L110.383 18.4897ZM108.432 16.3174C107.957 15.3969 107.711 14.3603 107.711 13.188H105.711C105.711 14.6504 106.02 16.0058 106.655 17.2346L108.432 16.3174ZM118.397 15.008V11.758H116.397V15.008H118.397ZM118.337 11.4163C117.99 10.4625 117.391 9.67222 116.564 9.05754L115.371 10.6625C115.896 11.0531 116.25 11.5282 116.458 12.0997L118.337 11.4163ZM116.564 9.05754C115.749 8.45112 114.851 8.106 113.887 8.106V10.106C114.345 10.106 114.834 10.2635 115.371 10.6625L116.564 9.05754ZM113.887 8.106C112.976 8.106 112.14 8.36616 111.419 8.9009L112.611 10.5071C112.965 10.2445 113.377 10.106 113.887 10.106V8.106ZM111.437 8.88849C110.746 9.3785 110.221 10.0316 109.859 10.8205L111.676 11.6555C111.903 11.1617 112.21 10.7922 112.594 10.5195L111.437 8.88849ZM109.863 10.811C109.502 11.5758 109.325 12.3986 109.325 13.266H111.325C111.325 12.6774 111.443 12.1482 111.672 11.665L109.863 10.811ZM109.325 13.266C109.325 14.1646 109.525 15.0108 109.935 15.7868L111.704 14.8532C111.455 14.3812 111.325 13.8581 111.325 13.266H109.325ZM109.94 15.7971C110.345 16.5427 110.898 17.1538 111.597 17.612L112.694 15.94C112.283 15.6702 111.952 15.3106 111.698 14.8429L109.94 15.7971ZM111.627 17.6312C112.369 18.0809 113.201 18.296 114.095 18.296V16.296C113.533 16.296 113.066 16.1644 112.664 15.9208L111.627 17.6312ZM114.095 18.296C114.987 18.296 115.828 17.9996 116.605 17.4746L115.485 15.8174C114.98 16.159 114.521 16.296 114.095 16.296V18.296ZM116.595 17.4814C117.409 16.9457 118.01 16.2374 118.336 15.3537L116.459 14.6623C116.299 15.096 115.999 15.4796 115.496 15.8106L116.595 17.4814ZM125.081 4.478H124.081V5.478H125.081V4.478ZM125.081 1.02V0.0199995H124.081V1.02H125.081ZM128.565 1.02H129.565V0.0199995H128.565V1.02ZM128.565 4.478V5.478H129.565V4.478H128.565ZM125.081 20H124.081V21H125.081V20ZM125.081 6.376V5.376H124.081V6.376H125.081ZM128.565 6.376H129.565V5.376H128.565V6.376ZM128.565 20V21H129.565V20H128.565ZM126.081 4.478V1.02H124.081V4.478H126.081ZM125.081 2.02H128.565V0.0199995H125.081V2.02ZM127.565 1.02V4.478H129.565V1.02H127.565ZM128.565 3.478H125.081V5.478H128.565V3.478ZM126.081 20V6.376H124.081V20H126.081ZM125.081 7.376H128.565V5.376H125.081V7.376ZM127.565 6.376V20H129.565V6.376H127.565ZM128.565 19H125.081V21H128.565V19ZM134.932 19.298L134.403 20.1468L134.411 20.1518L134.42 20.1567L134.932 19.298ZM132.488 16.698L131.605 17.1678L132.488 16.698ZM132.488 9.704L131.611 9.22313L131.605 9.23415L132.488 9.704ZM134.958 7.13L135.477 7.98502L135.481 7.9826L134.958 7.13ZM142.576 7.13L142.047 7.97878L142.055 7.98382L142.064 7.98871L142.576 7.13ZM145.046 16.698L145.929 17.1678L145.046 16.698ZM142.576 19.298L143.095 20.153L143.099 20.1506L142.576 19.298ZM135.686 15.346L134.792 15.7932L134.797 15.8033L135.686 15.346ZM136.96 16.776L137.502 15.9357L136.96 16.776ZM140.574 16.776L141.116 17.6163L141.126 17.6102L141.135 17.6039L140.574 16.776ZM141.848 15.32L140.964 14.8532L140.959 14.8627L141.848 15.32ZM141.848 11.108L140.954 11.5552L140.961 11.5703L140.969 11.5851L141.848 11.108ZM140.574 9.652L140.013 10.4799L140.023 10.4862L140.032 10.4923L140.574 9.652ZM136.96 9.652L137.502 10.4923L137.512 10.4862L137.521 10.4799L136.96 9.652ZM135.686 11.108L136.575 11.5654L136.581 11.5552L135.686 11.108ZM138.78 19.26C137.435 19.26 136.337 18.9719 135.445 18.4393L134.42 20.1567C135.677 20.9068 137.144 21.26 138.78 21.26V19.26ZM135.461 18.4492C134.549 17.8813 133.858 17.1438 133.371 16.2282L131.605 17.1678C132.262 18.4015 133.2 19.3974 134.403 20.1468L135.461 18.4492ZM133.371 16.2282C132.878 15.3019 132.63 14.3024 132.63 13.214H130.63C130.63 14.6216 130.954 15.9448 131.605 17.1678L133.371 16.2282ZM132.63 13.214C132.63 12.1058 132.879 11.0981 133.371 10.1738L131.605 9.23415C130.953 10.4592 130.63 11.7915 130.63 13.214H132.63ZM133.365 10.1848C133.869 9.26563 134.568 8.5361 135.477 7.98501L134.439 6.27499C133.233 7.00657 132.286 7.99303 131.611 9.22317L133.365 10.1848ZM135.481 7.9826C136.373 7.4356 137.46 7.142 138.78 7.142V5.142C137.154 5.142 135.692 5.50707 134.436 6.2774L135.481 7.9826ZM138.78 7.142C140.101 7.142 141.176 7.43576 142.047 7.97878L143.105 6.28122C141.862 5.5069 140.406 5.142 138.78 5.142V7.142ZM142.064 7.98871C142.986 8.53935 143.68 9.2648 144.163 10.1738L145.929 9.23415C145.269 7.99386 144.315 7.00331 143.089 6.27129L142.064 7.98871ZM144.163 10.1738C144.655 11.0981 144.904 12.1058 144.904 13.214H146.904C146.904 11.7915 146.581 10.4592 145.929 9.23415L144.163 10.1738ZM144.904 13.214C144.904 14.3024 144.656 15.3019 144.163 16.2282L145.929 17.1678C146.58 15.9448 146.904 14.6216 146.904 13.214H144.904ZM144.163 16.2282C143.678 17.1397 142.982 17.8765 142.054 18.4454L143.099 20.1506C144.32 19.4022 145.27 18.4057 145.929 17.1678L144.163 16.2282ZM142.058 18.443C141.184 18.9727 140.106 19.26 138.78 19.26V21.26C140.401 21.26 141.853 20.9059 143.095 20.153L142.058 18.443ZM134.218 13.214C134.218 14.1443 134.401 15.0117 134.792 15.7932L136.581 14.8988C136.347 14.4323 136.218 13.8784 136.218 13.214H134.218ZM134.797 15.8033C135.183 16.5551 135.724 17.1682 136.418 17.6163L137.502 15.9357C137.122 15.6904 136.813 15.3502 136.575 14.8887L134.797 15.8033ZM136.418 17.6163C137.126 18.0733 137.923 18.296 138.78 18.296V16.296C138.285 16.296 137.869 16.172 137.502 15.9357L136.418 17.6163ZM138.78 18.296C139.625 18.296 140.412 18.0705 141.116 17.6163L140.032 15.9357C139.661 16.1749 139.253 16.296 138.78 16.296V18.296ZM141.135 17.6039C141.818 17.141 142.353 16.5252 142.737 15.7773L140.959 14.8627C140.719 15.3281 140.405 15.683 140.013 15.9481L141.135 17.6039ZM142.732 15.7868C143.147 15.0011 143.342 14.1266 143.342 13.188H141.342C141.342 13.8441 141.208 14.3909 140.964 14.8532L142.732 15.7868ZM143.342 13.188C143.342 12.2633 143.146 11.4022 142.727 10.6309L140.969 11.5851C141.209 12.0271 141.342 12.5527 141.342 13.188H143.342ZM142.743 10.6608C142.358 9.89161 141.818 9.26421 141.116 8.8117L140.032 10.4923C140.405 10.7331 140.714 11.0764 140.954 11.5552L142.743 10.6608ZM141.135 8.82408C140.429 8.34618 139.636 8.106 138.78 8.106V10.106C139.242 10.106 139.644 10.2298 140.013 10.4799L141.135 8.82408ZM138.78 8.106C137.913 8.106 137.109 8.3431 136.399 8.82408L137.521 10.4799C137.886 10.2329 138.295 10.106 138.78 10.106V8.106ZM136.418 8.8117C135.717 9.26421 135.176 9.89161 134.792 10.6608L136.581 11.5552C136.82 11.0764 137.129 10.7331 137.502 10.4923L136.418 8.8117ZM134.797 10.6507C134.401 11.4209 134.218 12.2844 134.218 13.214H136.218C136.218 12.5489 136.348 12.0085 136.575 11.5653L134.797 10.6507Z" fill="black"/>
</svg>
